<svg xmlns="http://www.w3.org/2000/svg" width="15.826" height="25.101" viewBox="0 0 387.826 517.101">
  <path id="Icon_awesome-clipboard-list" data-name="Icon awesome-clipboard-list" d="M339.347,64.638h-80.8a64.638,64.638,0,1,0-129.275,0h-80.8A48.491,48.491,0,0,0,0,113.116V468.623A48.491,48.491,0,0,0,48.478,517.1H339.347a48.491,48.491,0,0,0,48.478-48.478V113.116A48.491,48.491,0,0,0,339.347,64.638ZM96.956,428.224A24.239,24.239,0,1,1,121.2,403.985,24.181,24.181,0,0,1,96.956,428.224Zm0-96.956A24.239,24.239,0,1,1,121.2,307.029,24.181,24.181,0,0,1,96.956,331.268Zm0-96.956A24.239,24.239,0,1,1,121.2,210.072,24.181,24.181,0,0,1,96.956,234.311ZM193.913,40.4a24.239,24.239,0,1,1-24.239,24.239A24.181,24.181,0,0,1,193.913,40.4ZM323.188,412.065a8.1,8.1,0,0,1-8.08,8.08H169.674a8.1,8.1,0,0,1-8.08-8.08V395.905a8.1,8.1,0,0,1,8.08-8.08H315.108a8.1,8.1,0,0,1,8.08,8.08Zm0-96.956a8.1,8.1,0,0,1-8.08,8.08H169.674a8.1,8.1,0,0,1-8.08-8.08V298.949a8.1,8.1,0,0,1,8.08-8.08H315.108a8.1,8.1,0,0,1,8.08,8.08Zm0-96.956a8.1,8.1,0,0,1-8.08,8.08H169.674a8.1,8.1,0,0,1-8.08-8.08V201.993a8.1,8.1,0,0,1,8.08-8.08H315.108a8.1,8.1,0,0,1,8.08,8.08Z" fill="#f7f2f2"/>
</svg>


