<svg xmlns="http://www.w3.org/2000/svg" width="20.305" height="15.713" viewBox="0 0 425.305 297.713">
  <defs>
    <style>
      .cls-1 {
        fill: #f2f0f0;
      }
    </style>
  </defs>
  <path id="Icon_awesome-user-friends" data-name="Icon awesome-user-friends" class="cls-1" d="M127.591,151.357A74.428,74.428,0,1,0,53.163,76.928,74.391,74.391,0,0,0,127.591,151.357Zm51.037,21.265h-5.516a102.759,102.759,0,0,1-91.042,0H76.555A76.575,76.575,0,0,0,0,249.177v19.139a31.906,31.906,0,0,0,31.9,31.9H223.285a31.906,31.906,0,0,0,31.9-31.9V249.177A76.575,76.575,0,0,0,178.628,172.622Zm140.351-21.265a63.8,63.8,0,1,0-63.8-63.8A63.812,63.812,0,0,0,318.978,151.357Zm31.9,21.265h-2.525a83.8,83.8,0,0,1-58.745,0h-2.525a73.81,73.81,0,0,0-37.015,10.234,97.252,97.252,0,0,1,26.382,66.321v25.518c0,1.462-.332,2.858-.4,4.253H393.407a31.906,31.906,0,0,0,31.9-31.9A74.391,74.391,0,0,0,350.876,172.622Z" transform="translate(0 -2.5)"/>
</svg>
